<svg xmlns="http://www.w3.org/2000/svg" width="144" height="144" viewBox="0 0 144 144">
<defs><linearGradient id="m" x1="0" y1="0" x2="1" y2="0"><stop offset="0" stop-color="#5c6166"/><stop offset=".45" stop-color="#e4e7ea"/><stop offset="1" stop-color="#6b7075"/></linearGradient><radialGradient id="k" cx="40%" cy="35%" r="70%"><stop offset="0" stop-color="#f4f6f8"/><stop offset="1" stop-color="#7d838a"/></radialGradient></defs>
<rect width="144" height="144" rx="16" fill="#16191b"/><rect x="4" y="4" width="136" height="136" rx="13" fill="none" stroke="#2c3135" stroke-width="2"/>
<line x1="72" y1="22" x2="72" y2="31" stroke="#4a5055" stroke-width="3" stroke-linecap="round" transform="rotate(-135.00 72 76)"/><line x1="72" y1="22" x2="72" y2="31" stroke="#ffca3a" stroke-width="4" stroke-linecap="round" transform="rotate(-96.43 72 76)"/><line x1="72" y1="22" x2="72" y2="31" stroke="#4a5055" stroke-width="3" stroke-linecap="round" transform="rotate(-57.86 72 76)"/><line x1="72" y1="22" x2="72" y2="31" stroke="#4a5055" stroke-width="3" stroke-linecap="round" transform="rotate(-19.29 72 76)"/><line x1="72" y1="22" x2="72" y2="31" stroke="#4a5055" stroke-width="3" stroke-linecap="round" transform="rotate(19.29 72 76)"/><line x1="72" y1="22" x2="72" y2="31" stroke="#4a5055" stroke-width="3" stroke-linecap="round" transform="rotate(57.86 72 76)"/><line x1="72" y1="22" x2="72" y2="31" stroke="#4a5055" stroke-width="3" stroke-linecap="round" transform="rotate(96.43 72 76)"/><line x1="72" y1="22" x2="72" y2="31" stroke="#4a5055" stroke-width="3" stroke-linecap="round" transform="rotate(135.00 72 76)"/><circle cx="72" cy="76" r="30" fill="url(#k)" stroke="#2a2d30" stroke-width="2"/><circle cx="72" cy="76" r="22" fill="#23272a"/><g transform="rotate(-96.43 72 76)"><rect x="68.5" y="52" width="7" height="22" rx="3.5" fill="#ffca3a"/></g><text x="72" y="134" text-anchor="middle" font-family="DejaVu Sans" font-weight="bold" font-size="13" fill="#ffca3a">2</text>
</svg>
