<svg xmlns="http://www.w3.org/2000/svg" width="144" height="144" viewBox="0 0 144 144">
<defs><linearGradient id="hm" x1="0" y1="0" x2="1" y2="1"><stop offset="0" stop-color="#f1f3f5"/><stop offset="1" stop-color="#9aa3ac"/></linearGradient>
<linearGradient id="vz" x1="0" y1="0" x2="1" y2="1"><stop offset="0" stop-color="#6fb4ee"/><stop offset="1" stop-color="#1d4e7a"/></linearGradient>
<linearGradient id="st" x1="0" y1="0" x2="1" y2="0"><stop offset="0" stop-color="#d5dae0"/><stop offset="1" stop-color="#7d868f"/></linearGradient></defs>
<rect width="144" height="144" rx="16" fill="#16191b"/>
<rect x="4" y="4" width="136" height="136" rx="13" fill="none" stroke="#2c3135" stroke-width="2"/>
<text x="12" y="22" font-family="DejaVu Sans, Verdana, Arial, sans-serif" font-weight="bold" font-size="13" fill="#9aa0a6">SIÈGE</text>
<path d="M58 100 Q58 80 76 77 L100 77 Q118 80 118 100 Z" fill="#3b4750" stroke="#6b7580" stroke-width="2"/><line x1="88" y1="80" x2="88" y2="100" stroke="#6b7580" stroke-width="2"/><circle cx="88" cy="58" r="20" fill="url(#hm)" stroke="#6b7075" stroke-width="2"/><rect x="74" y="49" width="28" height="15" rx="7" fill="url(#vz)" stroke="#0c0e0f" stroke-width="1.5"/><line x1="88" y1="38" x2="88" y2="48" stroke="#9aa3ac" stroke-width="2"/><line x1="60.0" y1="58.0" x2="30.2" y2="58.0" stroke="#3ddc84" stroke-width="8" stroke-linecap="round"/><polygon points="16.0,58.0 35.0,46.2 35.0,69.8" fill="#3ddc84" stroke="#3ddc84" stroke-width="1.5" stroke-linejoin="round"/>
<rect x="14" y="112" width="116" height="24" rx="6" fill="#3ddc84" fill-opacity="0.15" stroke="#3ddc84" stroke-width="1.5"/>
<text x="72" y="129.5" text-anchor="middle" font-family="DejaVu Sans, Verdana, Arial, sans-serif" font-weight="bold" font-size="15" fill="#3ddc84">GAUCHE</text>
</svg>
